<svg width="134" height="12" viewBox="0 0 134 12" fill="none" xmlns="http://www.w3.org/2000/svg">
<path d="M13.286 1.13H15.358L11.844 11H10.094L7.812 4.462L5.502 11H3.752L0.252 1.13H2.464L4.718 7.948L7.112 1.13H8.638L10.948 8.018L13.286 1.13ZM20.7373 3.958C21.5586 3.958 22.1699 4.20067 22.5713 4.686C22.9726 5.162 23.1733 5.88533 23.1733 6.856V11H21.0593V6.954C21.0593 6.48733 20.9706 6.14667 20.7933 5.932C20.6253 5.71733 20.3593 5.61 19.9953 5.61C19.5566 5.61 19.2019 5.75 18.9313 6.03C18.6699 6.31 18.5393 6.68333 18.5393 7.15V11H16.4253V1.13H18.5393V5.036C18.7819 4.68133 19.0899 4.41533 19.4633 4.238C19.8459 4.05133 20.2706 3.958 20.7373 3.958ZM30.9395 7.962H26.4595C26.5248 8.51267 26.7021 8.914 26.9915 9.166C27.2901 9.40867 27.7101 9.53 28.2515 9.53C28.6061 9.53 28.9561 9.474 29.3015 9.362C29.6561 9.24067 29.9781 9.07267 30.2675 8.858L30.8275 10.272C30.4915 10.5333 30.0808 10.7387 29.5955 10.888C29.1195 11.0373 28.6388 11.112 28.1535 11.112C26.9961 11.112 26.0815 10.7947 25.4095 10.16C24.7468 9.516 24.4155 8.64333 24.4155 7.542C24.4155 6.842 24.5601 6.22133 24.8495 5.68C25.1388 5.13867 25.5401 4.71867 26.0535 4.42C26.5668 4.112 27.1501 3.958 27.8035 3.958C28.7648 3.958 29.5255 4.27067 30.0855 4.896C30.6548 5.52133 30.9395 6.37067 30.9395 7.444V7.962ZM27.8595 5.414C27.4581 5.414 27.1361 5.54467 26.8935 5.806C26.6601 6.058 26.5155 6.42667 26.4595 6.912H29.1615C29.1335 6.41733 29.0075 6.044 28.7835 5.792C28.5688 5.54 28.2608 5.414 27.8595 5.414ZM37.1303 5.694L35.9403 5.82C35.3523 5.876 34.937 6.044 34.6943 6.324C34.4516 6.59467 34.3303 6.95867 34.3303 7.416V11H32.2163V4.126H34.2463V5.288C34.5916 4.49467 35.3056 4.06067 36.3883 3.986L37.0043 3.944L37.1303 5.694ZM43.8867 7.962H39.4067C39.4721 8.51267 39.6494 8.914 39.9387 9.166C40.2374 9.40867 40.6574 9.53 41.1987 9.53C41.5534 9.53 41.9034 9.474 42.2487 9.362C42.6034 9.24067 42.9254 9.07267 43.2147 8.858L43.7747 10.272C43.4387 10.5333 43.0281 10.7387 42.5427 10.888C42.0667 11.0373 41.5861 11.112 41.1007 11.112C39.9434 11.112 39.0287 10.7947 38.3567 10.16C37.6941 9.516 37.3627 8.64333 37.3627 7.542C37.3627 6.842 37.5074 6.22133 37.7967 5.68C38.0861 5.13867 38.4874 4.71867 39.0007 4.42C39.5141 4.112 40.0974 3.958 40.7507 3.958C41.7121 3.958 42.4727 4.27067 43.0327 4.896C43.6021 5.52133 43.8867 6.37067 43.8867 7.444V7.962ZM40.8067 5.414C40.4054 5.414 40.0834 5.54467 39.8407 5.806C39.6074 6.058 39.4627 6.42667 39.4067 6.912H42.1087C42.0807 6.41733 41.9547 6.044 41.7307 5.792C41.5161 5.54 41.2081 5.414 40.8067 5.414ZM49.0737 11V4.126H51.1877V11H49.0737ZM49.0037 0.821999H51.2717V2.796H49.0037V0.821999ZM57.1181 3.958C57.9395 3.958 58.5508 4.20067 58.9521 4.686C59.3535 5.162 59.5541 5.88533 59.5541 6.856V11H57.4401V6.954C57.4401 6.48733 57.3515 6.14667 57.1741 5.932C57.0061 5.71733 56.7401 5.61 56.3761 5.61C55.9375 5.61 55.5828 5.75 55.3121 6.03C55.0508 6.31 54.9201 6.68333 54.9201 7.15V11H52.8061V4.126H54.8641V5.106C55.1068 4.73267 55.4195 4.448 55.8021 4.252C56.1941 4.056 56.6328 3.958 57.1181 3.958ZM68.8505 9.558C69.0651 9.558 69.2891 9.544 69.5225 9.516L69.4105 11.056C69.1398 11.0933 68.8691 11.112 68.5985 11.112C67.5531 11.112 66.7878 10.8833 66.3025 10.426C65.8265 9.96867 65.5885 9.27333 65.5885 8.34V5.708H64.2865V4.126H65.5885V2.11H67.7025V4.126H69.4245V5.708H67.7025V8.326C67.7025 9.14733 68.0851 9.558 68.8505 9.558ZM74.7685 3.958C75.5899 3.958 76.2012 4.20067 76.6025 4.686C77.0039 5.162 77.2045 5.88533 77.2045 6.856V11H75.0905V6.954C75.0905 6.48733 75.0019 6.14667 74.8245 5.932C74.6565 5.71733 74.3905 5.61 74.0265 5.61C73.5879 5.61 73.2332 5.75 72.9625 6.03C72.7012 6.31 72.5705 6.68333 72.5705 7.15V11H70.4565V1.13H72.5705V5.036C72.8132 4.68133 73.1212 4.41533 73.4945 4.238C73.8772 4.05133 74.3019 3.958 74.7685 3.958ZM84.9707 7.962H80.4907C80.556 8.51267 80.7334 8.914 81.0227 9.166C81.3214 9.40867 81.7414 9.53 82.2827 9.53C82.6374 9.53 82.9874 9.474 83.3327 9.362C83.6874 9.24067 84.0094 9.07267 84.2987 8.858L84.8587 10.272C84.5227 10.5333 84.112 10.7387 83.6267 10.888C83.1507 11.0373 82.67 11.112 82.1847 11.112C81.0274 11.112 80.1127 10.7947 79.4407 10.16C78.778 9.516 78.4467 8.64333 78.4467 7.542C78.4467 6.842 78.5914 6.22133 78.8807 5.68C79.17 5.13867 79.5714 4.71867 80.0847 4.42C80.598 4.112 81.1814 3.958 81.8347 3.958C82.796 3.958 83.5567 4.27067 84.1167 4.896C84.686 5.52133 84.9707 6.37067 84.9707 7.444V7.962ZM81.8907 5.414C81.4894 5.414 81.1674 5.54467 80.9247 5.806C80.6914 6.058 80.5467 6.42667 80.4907 6.912H83.1927C83.1647 6.41733 83.0387 6.044 82.8147 5.792C82.6 5.54 82.292 5.414 81.8907 5.414ZM99.3977 4.126H101.456L98.6697 11H96.8777L95.3657 7.122L93.8957 11H92.1177L89.3177 4.126H91.4737L93.0977 8.48L94.7217 4.126H96.1497L97.7877 8.522L99.3977 4.126ZM105.411 11.112C104.683 11.112 104.044 10.9673 103.493 10.678C102.942 10.3793 102.518 9.964 102.219 9.432C101.92 8.89067 101.771 8.256 101.771 7.528C101.771 6.8 101.92 6.17 102.219 5.638C102.518 5.09667 102.942 4.68133 103.493 4.392C104.044 4.10267 104.683 3.958 105.411 3.958C106.139 3.958 106.778 4.10267 107.329 4.392C107.88 4.68133 108.304 5.09667 108.603 5.638C108.902 6.17 109.051 6.8 109.051 7.528C109.051 8.256 108.902 8.89067 108.603 9.432C108.304 9.964 107.88 10.3793 107.329 10.678C106.778 10.9673 106.139 11.112 105.411 11.112ZM105.411 9.502C106.438 9.502 106.951 8.844 106.951 7.528C106.951 6.86533 106.816 6.37067 106.545 6.044C106.284 5.71733 105.906 5.554 105.411 5.554C104.384 5.554 103.871 6.212 103.871 7.528C103.871 8.844 104.384 9.502 105.411 9.502ZM115.251 5.694L114.061 5.82C113.473 5.876 113.058 6.044 112.815 6.324C112.573 6.59467 112.451 6.95867 112.451 7.416V11H110.337V4.126H112.367V5.288C112.713 4.49467 113.427 4.06067 114.509 3.986L115.125 3.944L115.251 5.694ZM115.957 11V1.13H118.071V11H115.957ZM126.647 1.13V11H124.547V9.978C124.342 10.3327 124.048 10.6127 123.665 10.818C123.292 11.014 122.867 11.112 122.391 11.112C121.803 11.112 121.276 10.9627 120.809 10.664C120.352 10.356 119.992 9.93133 119.731 9.39C119.479 8.83933 119.353 8.20933 119.353 7.5C119.353 6.79067 119.479 6.17 119.731 5.638C119.992 5.09667 120.352 4.68133 120.809 4.392C121.266 4.10267 121.794 3.958 122.391 3.958C122.858 3.958 123.278 4.056 123.651 4.252C124.034 4.448 124.328 4.72333 124.533 5.078V1.13H126.647ZM123.007 9.502C123.502 9.502 123.88 9.334 124.141 8.998C124.412 8.65267 124.547 8.16267 124.547 7.528C124.547 6.89333 124.412 6.408 124.141 6.072C123.88 5.736 123.502 5.568 123.007 5.568C122.512 5.568 122.13 5.736 121.859 6.072C121.588 6.39867 121.453 6.87467 121.453 7.5C121.453 8.13467 121.588 8.62933 121.859 8.984C122.13 9.32933 122.512 9.502 123.007 9.502ZM130.011 7.178C130.011 6.69267 130.1 6.29133 130.277 5.974C130.454 5.64733 130.702 5.302 131.019 4.938C131.262 4.658 131.439 4.42 131.551 4.224C131.672 4.028 131.733 3.81333 131.733 3.58C131.733 3.3 131.64 3.08533 131.453 2.936C131.266 2.78667 131 2.712 130.655 2.712C130.282 2.712 129.876 2.796 129.437 2.964C128.998 3.132 128.569 3.36533 128.149 3.664L127.449 2.11C127.832 1.774 128.331 1.508 128.947 1.312C129.572 1.10667 130.198 1.004 130.823 1.004C131.42 1.004 131.948 1.10667 132.405 1.312C132.872 1.508 133.231 1.788 133.483 2.152C133.744 2.50667 133.875 2.91267 133.875 3.37C133.875 3.71533 133.81 4.03267 133.679 4.322C133.548 4.602 133.39 4.84933 133.203 5.064C133.026 5.26933 132.778 5.52133 132.461 5.82C132.106 6.156 131.84 6.44067 131.663 6.674C131.486 6.898 131.374 7.14533 131.327 7.416L131.243 7.878H130.011V7.178ZM129.535 11V8.76H131.789V11H129.535Z" fill="#111517"/>
</svg>
